<svg xmlns="http://www.w3.org/2000/svg"  viewBox="0 0 100 100" width="50px" height="50px" fill="#f1bc19"><path fill="#f1bc19" d="M77 12A1 1 0 1 0 77 14A1 1 0 1 0 77 12Z"/><path fill="#e4e4f9" d="M50 13A37 37 0 1 0 50 87A37 37 0 1 0 50 13Z"/><path fill="#f1bc19" d="M83 11A4 4 0 1 0 83 19A4 4 0 1 0 83 11Z"/><path fill="#8889b9" d="M87 22A2 2 0 1 0 87 26A2 2 0 1 0 87 22Z"/><path fill="#fbcd59" d="M81 74A2 2 0 1 0 81 78 2 2 0 1 0 81 74zM15 59A4 4 0 1 0 15 67 4 4 0 1 0 15 59z"/><path fill="#8889b9" d="M25 85A2 2 0 1 0 25 89A2 2 0 1 0 25 85Z"/><path fill="#fff" d="M18.5 49A2.5 2.5 0 1 0 18.5 54 2.5 2.5 0 1 0 18.5 49zM79.5 32A1.5 1.5 0 1 0 79.5 35 1.5 1.5 0 1 0 79.5 32z"/><g><path fill="#f4989e" d="M35,72.3c-4,0-7.3-3.3-7.3-7.3V35c0-4,3.3-7.3,7.3-7.3h30c4,0,7.3,3.3,7.3,7.3v30c0,4-3.3,7.3-7.3,7.3H35z"/><path fill="#472b29" d="M65,28.4c3.6,0,6.6,3,6.6,6.6v30c0,3.6-3,6.6-6.6,6.6H35c-3.6,0-6.6-3-6.6-6.6V35c0-3.6,3-6.6,6.6-6.6H65 M65,27H35c-4.4,0-8,3.6-8,8v30c0,4.4,3.6,8,8,8h30c4.4,0,8-3.6,8-8V35C73,30.6,69.4,27,65,27L65,27z"/></g><g><path fill="#fdfcee" d="M68.5,47.9v1.8V64c0,2.5-2,4.5-4.5,4.5H36c-2.5,0-4.5-2-4.5-4.5V36c0-2.5,2-4.5,4.5-4.5h25.4H64 c2.5,0,4.5,2,4.5,4.5v3.4v2v1v1.1v2.9V47.9"/></g><g><path fill="#472b29" d="M68.5,47.4c-0.3,0-0.5-0.2-0.5-0.5V43c0-0.3,0.2-0.5,0.5-0.5S69,42.7,69,43v3.9C69,47.2,68.8,47.4,68.5,47.4z"/></g><g><path fill="#472b29" d="M68.5,40.5c-0.3,0-0.5-0.2-0.5-0.5v-2c0-0.3,0.2-0.5,0.5-0.5S69,37.7,69,38v2C69,40.3,68.8,40.5,68.5,40.5z"/></g><g><path fill="#472b29" d="M64,69H36c-2.8,0-5-2.2-5-5V36c0-2.8,2.2-5,5-5h25.4c0.3,0,0.5,0.2,0.5,0.5S61.7,32,61.4,32H36 c-2.2,0-4,1.8-4,4v28c0,2.2,1.8,4,4,4h28c2.2,0,4-1.8,4-4V49.6c0-0.3,0.2-0.5,0.5-0.5s0.5,0.2,0.5,0.5V64C69,66.8,66.8,69,64,69z"/></g><g><path fill="#ee3e54" d="M50,58.5c-0.2,0-6.3-0.1-8.1-0.3c-0.1,0-0.2,0-0.3,0c-0.6-0.1-1.4-0.2-2-0.9c-0.5-0.5-0.8-1.8-0.8-2.3 c0,0-0.2-2.1-0.2-4.1V49c0-2,0.2-4.1,0.2-4.1c0.1-0.4,0.3-1.7,0.8-2.3c0.7-0.8,1.4-0.9,1.9-0.9l0.2,0c3.3-0.3,8.3-0.3,8.3-0.3 c0.1,0,5.1,0,8.4,0.3l0.1,0c0.5,0.1,1.2,0.1,1.9,0.9c0.5,0.5,0.8,1.8,0.8,2.3c0,0,0.2,2.1,0.2,4.1V51c0,2-0.2,4.1-0.2,4.1 c-0.1,0.4-0.3,1.7-0.8,2.3c-0.7,0.8-1.4,0.9-1.9,0.9l-0.2,0C55.1,58.5,50.2,58.5,50,58.5z"/><path fill="#472b29" d="M50,42c0,0,5,0,8.3,0.3l0.2,0c0.4,0,1,0.1,1.6,0.8c0.3,0.4,0.6,1.4,0.7,2c0,0,0.2,2,0.2,4V51c0,2-0.2,4-0.2,4 c-0.1,0.6-0.4,1.6-0.7,2c-0.6,0.6-1.2,0.7-1.6,0.7l-0.1,0C55,58,50,58,50,58c-0.1,0-6.1-0.1-8-0.2c-0.1,0-0.2,0-0.3,0 c-0.5-0.1-1.2-0.2-1.7-0.7c-0.3-0.4-0.6-1.4-0.7-2c0,0-0.2-2-0.2-4V49c0-2,0.2-4,0.2-4c0.1-0.6,0.4-1.6,0.7-2 c0.6-0.6,1.2-0.7,1.6-0.7l0.1,0C45,42,49.9,42,50,42L50,42 M50,41L50,41c0,0-5,0-8.4,0.3c-0.5,0.1-1.5,0.1-2.4,1.1 c-0.7,0.8-1,2.5-1,2.5S38,47,38,49V51c0,2.1,0.2,4.1,0.2,4.1s0.2,1.8,1,2.5c0.9,1,2.1,1,2.6,1.1C43.8,58.9,50,59,50,59 s5,0,8.4-0.3c0.5-0.1,1.5-0.1,2.4-1.1c0.7-0.8,1-2.5,1-2.5S62,53,62,51V49c0-2.1-0.2-4.1-0.2-4.1s-0.2-1.8-1-2.5 c-0.9-1-1.9-1-2.4-1.1C55,41,50,41,50,41L50,41z"/></g><g><path fill="#fdfcee" d="M47.6 45.6L47.6 54.2 55 49.9z"/><path fill="#472b29" d="M47.1,55.1V44.7l8.9,5.2L47.1,55.1z M48.1,46.4v6.9l5.9-3.5L48.1,46.4z"/></g></svg>